<svg xmlns="http://www.w3.org/2000/svg" version="1.1" xmlns:xlink="http://www.w3.org/1999/xlink" xmlns:svgjs="http://svgjs.dev/svgjs" width="1500" height="1500" viewBox="0 0 1500 1500"><rect width="1500" height="1500" fill="#395b64"></rect><g transform="matrix(0.6666666666666666,0,0,0.6666666666666666,249.39393939393938,629.7340362700143)"><svg viewBox="0 0 396 95" data-background-color="#395b64" preserveAspectRatio="xMidYMid meet" height="359" width="1500" xmlns="http://www.w3.org/2000/svg" xmlns:xlink="http://www.w3.org/1999/xlink"><g id="tight-bounds" transform="matrix(1,0,0,1,0.2400000000000091,0.2378825390612178)"><svg viewBox="0 0 395.52 94.52423492187755" height="94.52423492187755" width="395.52"><g><svg viewBox="0 0 537.1968021503502 128.38318346920784" height="94.52423492187755" width="395.52"><g transform="matrix(1,0,0,1,0,17.74326197005695)"><svg viewBox="0 0 395.52 92.89665952909394" height="92.89665952909394" width="395.52"><g id="textblocktransform"><svg viewBox="0 0 395.52 92.89665952909394" height="92.89665952909394" width="395.52" id="textblock"><g><svg viewBox="0 0 395.52 56.31075874355032" height="56.31075874355032" width="395.52"><g transform="matrix(1,0,0,1,0,0)"><svg width="395.52" viewBox="1.25 -34.7 247.08 35.18" height="56.31075874355032" data-palette-color="#d2dbc8"><path d="M21.1-31.1L10.8-31.1Q8.6-31.1 7.38-30.35 6.15-29.6 5.55-28.23 4.95-26.85 4.55-24.9L4.55-24.9Q3.7-24.9 2.8-25 1.9-25.1 1.25-25.45L1.25-25.45Q1.7-27.55 1.95-29.83 2.2-32.1 2.2-33.95L2.2-33.95Q3.8-33.9 5.85-33.85 7.9-33.8 10.38-33.8 12.85-33.8 15.9-33.8L15.9-33.8Q18.75-33.8 21.28-33.8 23.8-33.8 25.88-33.85 27.95-33.9 29.55-33.95L29.55-33.95Q29.5-32.05 29.65-29.93 29.8-27.8 30.1-25.45L30.1-25.45Q29.45-25.15 28.6-25 27.75-24.85 26.75-24.9L26.75-24.9Q26.5-28 25.23-29.55 23.95-31.1 21.1-31.1L21.1-31.1ZM12.6-7.3L12.6-32.3 19-32.3 19-7.3Q19-5.45 19.33-4.45 19.65-3.45 20.55-3.05 21.45-2.65 23.2-2.55L23.2-2.55Q23.4-2.1 23.48-1.38 23.55-0.65 23.55 0.15L23.55 0.15Q22 0.05 20.03 0.03 18.05 0 15.95 0L15.95 0Q14.55 0 13.03 0.03 11.5 0.05 10.15 0.08 8.8 0.1 7.8 0.15L7.8 0.15Q7.8-0.6 7.9-1.33 8-2.05 8.15-2.55L8.15-2.55Q9.9-2.65 10.88-3.05 11.85-3.45 12.23-4.45 12.6-5.45 12.6-7.3L12.6-7.3ZM45.2 0.45L45.2 0.45Q41.5 0.45 38.8-1 36.1-2.45 34.67-5.1 33.25-7.75 33.25-11.3L33.25-11.3Q33.25-15 34.82-17.7 36.4-20.4 39.15-21.88 41.9-23.35 45.35-23.35L45.35-23.35Q49.25-23.35 51.92-21.85 54.6-20.35 56-17.7 57.4-15.05 57.4-11.6L57.4-11.6Q57.4-8 55.87-5.3 54.35-2.6 51.62-1.07 48.9 0.45 45.2 0.45ZM45.8-2.4L45.8-2.4Q48.35-2.4 49.65-4.73 50.95-7.05 50.95-10.65L50.95-10.65Q50.95-13.8 50.1-16.03 49.25-18.25 47.85-19.4 46.45-20.55 44.8-20.55L44.8-20.55Q42.2-20.55 40.95-18.3 39.7-16.05 39.7-12.65L39.7-12.65Q39.7-9.55 40.45-7.23 41.2-4.9 42.55-3.65 43.9-2.4 45.8-2.4ZM61.6 0.15L61.6 0.15Q61.6-0.7 61.65-1.38 61.7-2.05 61.9-2.55L61.9-2.55Q63.25-2.65 63.97-3.08 64.7-3.5 65-4.58 65.3-5.65 65.3-7.7L65.3-7.7 65.3-26.5Q65.3-28.4 65.02-29.35 64.75-30.3 64-30.73 63.25-31.15 61.9-31.25L61.9-31.25Q61.75-31.75 61.67-32.52 61.6-33.3 61.6-33.95L61.6-33.95Q62.55-33.9 63.95-33.88 65.35-33.85 66.87-33.83 68.4-33.8 69.75-33.8L69.75-33.8Q71.05-33.8 72.47-33.85 73.9-33.9 75.4-33.9L75.4-33.9Q78.15-33.9 80.85-33.52 83.55-33.15 85.92-32.18 88.3-31.2 90.15-29.38 92-27.55 93.05-24.73 94.09-21.9 94.09-17.75L94.09-17.75Q94.09-13.7 93.09-10.8 92.09-7.9 90.45-5.95 88.8-4 86.75-2.8 84.7-1.6 82.6-1 80.5-0.4 78.6-0.2 76.7 0 75.35 0L75.35 0Q73.95 0 72 0 70.05 0 68 0.03 65.95 0.05 64.22 0.08 62.5 0.1 61.6 0.15ZM76.05-2.75L76.05-2.75Q78.25-2.75 80.27-3.35 82.3-3.95 83.9-5.5 85.5-7.05 86.42-9.83 87.35-12.6 87.35-16.95L87.35-16.95Q87.35-21 86.3-23.78 85.25-26.55 83.5-28.23 81.75-29.9 79.5-30.65 77.25-31.4 74.85-31.4L74.85-31.4Q73.85-31.4 72.72-31.2 71.6-31 71.2-30.7L71.2-30.7 71.7-32.3 71.7-7.75Q71.7-5.75 72.05-4.67 72.4-3.6 73.35-3.18 74.3-2.75 76.05-2.75ZM109.64 0.45L109.64 0.45Q105.94 0.45 103.24-1 100.54-2.45 99.12-5.1 97.69-7.75 97.69-11.3L97.69-11.3Q97.69-15 99.27-17.7 100.84-20.4 103.59-21.88 106.34-23.35 109.79-23.35L109.79-23.35Q113.69-23.35 116.37-21.85 119.04-20.35 120.44-17.7 121.84-15.05 121.84-11.6L121.84-11.6Q121.84-8 120.32-5.3 118.79-2.6 116.07-1.07 113.34 0.45 109.64 0.45ZM110.24-2.4L110.24-2.4Q112.79-2.4 114.09-4.73 115.39-7.05 115.39-10.65L115.39-10.65Q115.39-13.8 114.54-16.03 113.69-18.25 112.29-19.4 110.89-20.55 109.24-20.55L109.24-20.55Q106.64-20.55 105.39-18.3 104.14-16.05 104.14-12.65L104.14-12.65Q104.14-9.55 104.89-7.23 105.64-4.9 106.99-3.65 108.34-2.4 110.24-2.4ZM140.49-2.75L140.94-2.75Q143.39-2.75 144.87-3.38 146.34-4 147.29-5.43 148.24-6.85 148.99-9.2L148.99-9.2Q149.99-9 150.79-8.68 151.59-8.35 152.09-7.85L152.09-7.85Q151.54-6.15 151.16-4.03 150.79-1.9 150.54 0.1L150.54 0.1Q149.44 0.05 147.64 0.05 145.84 0.05 143.76 0.03 141.69 0 139.79 0L139.79 0Q138.39 0 136.44 0 134.49 0 132.44 0.03 130.39 0.05 128.66 0.08 126.94 0.1 126.04 0.15L126.04 0.15Q126.04-0.7 126.09-1.38 126.14-2.05 126.34-2.55L126.34-2.55Q127.69-2.65 128.41-3.08 129.14-3.5 129.44-4.58 129.74-5.65 129.74-7.7L129.74-7.7 129.74-26.5Q129.74-28.4 129.47-29.35 129.19-30.3 128.44-30.73 127.69-31.15 126.34-31.25L126.34-31.25Q126.19-31.75 126.11-32.52 126.04-33.3 126.04-33.95L126.04-33.95Q127.24-33.9 128.41-33.88 129.59-33.85 130.74-33.83 131.89-33.8 132.94-33.8L132.94-33.8Q134.09-33.8 135.29-33.83 136.49-33.85 137.66-33.88 138.84-33.9 139.84-33.95L139.84-33.95Q139.84-33.2 139.79-32.48 139.74-31.75 139.54-31.25L139.54-31.25Q138.24-31.15 137.49-30.75 136.74-30.35 136.44-29.35 136.14-28.35 136.14-26.4L136.14-26.4 136.14-7.75Q136.14-5.75 136.49-4.67 136.84-3.6 137.79-3.18 138.74-2.75 140.49-2.75L140.49-2.75ZM154.69 0.15L154.69 0.15Q154.69-0.6 154.76-1.3 154.84-2 155.04-2.55L155.04-2.55Q157.04-2.6 157.71-3.5 158.39-4.4 158.39-6.9L158.39-6.9 158.39-15.65Q158.39-16.85 158.14-17.6 157.89-18.35 157.09-18.75 156.29-19.15 154.69-19.2L154.69-19.2Q154.69-19.9 154.79-20.53 154.89-21.15 155.19-21.65L155.19-21.65Q156.49-21.65 158.11-21.9 159.74-22.15 161.14-22.55 162.54-22.95 163.19-23.35L163.19-23.35Q163.79-23.15 164.16-22.6 164.54-22.05 164.54-20.95L164.54-20.95 164.54-6.9Q164.54-4.4 165.19-3.5 165.84-2.6 167.59-2.55L167.59-2.55Q167.79-2 167.84-1.25 167.89-0.5 167.89 0.15L167.89 0.15Q167.09 0.1 166.01 0.08 164.94 0.05 163.74 0.03 162.54 0 161.34 0L161.34 0Q160.14 0 158.89 0.03 157.64 0.05 156.56 0.08 155.49 0.1 154.69 0.15ZM160.94-27.95L160.94-27.95Q159.34-27.95 158.31-28.88 157.29-29.8 157.29-31.2L157.29-31.2Q157.29-32.85 158.39-33.77 159.49-34.7 161.04-34.7L161.04-34.7Q162.79-34.7 163.81-33.77 164.84-32.85 164.84-31.25L164.84-31.25Q164.84-29.9 163.74-28.93 162.64-27.95 160.94-27.95ZM188.39-21.7L188.39-21.7Q188.34-20.45 188.34-19.1 188.34-17.75 188.53-16.45L188.53-16.45Q187.94-16.05 187.06-15.85 186.19-15.65 185.24-15.65L185.24-15.65Q185.14-17 184.51-18.15 183.89-19.3 182.78-20 181.69-20.7 180.14-20.7L180.14-20.7Q178.84-20.7 178.06-20.05 177.28-19.4 177.28-18.35L177.28-18.35Q177.28-17.6 177.64-16.98 177.99-16.35 179.19-15.65 180.39-14.95 182.94-13.95L182.94-13.95Q185.69-12.9 187.28-11.88 188.89-10.85 189.54-9.6 190.19-8.35 190.19-6.65L190.19-6.65Q190.19-4.45 188.94-2.85 187.69-1.25 185.44-0.4 183.19 0.45 180.24 0.45L180.24 0.45Q177.19 0.45 175.26 0 173.34-0.45 171.53-1.35L171.53-1.35Q171.64-2.2 171.66-3.35 171.69-4.5 171.69-5.63 171.69-6.75 171.59-7.55L171.59-7.55Q172.14-7.9 173.11-8.08 174.09-8.25 174.99-8.25L174.99-8.25Q175.34-5.35 176.74-3.9 178.14-2.45 180.39-2.45L180.39-2.45Q182.14-2.45 183.11-3.2 184.09-3.95 184.09-5.2L184.09-5.2Q184.09-6 183.69-6.63 183.28-7.25 182.21-7.88 181.14-8.5 179.03-9.3L179.03-9.3Q176.59-10.3 174.96-11.25 173.34-12.2 172.53-13.55 171.74-14.9 171.74-16.95L171.74-16.95Q171.74-18.6 172.51-19.8 173.28-21 174.59-21.8 175.89-22.6 177.49-22.98 179.09-23.35 180.69-23.35L180.69-23.35Q183.19-23.35 184.99-22.93 186.78-22.5 188.39-21.7ZM202.98 0.45L202.98 0.45Q199.68 0.45 198.06-1.25 196.43-2.95 196.43-6.85L196.43-6.85 196.43-19Q195.68-19.3 194.86-19.45 194.03-19.6 192.78-19.65L192.78-19.65Q192.78-20.45 192.91-21.08 193.03-21.7 193.33-22.4L193.33-22.4 196.43-22.4 196.43-28.75Q197.83-29 199.21-29.63 200.58-30.25 201.48-31L201.48-31Q202.13-30.75 202.33-30.25 202.53-29.75 202.53-28.1L202.53-28.1 202.53-22.4 208.83-22.4Q208.83-21.65 208.73-20.95 208.63-20.25 208.38-19.6L208.38-19.6Q206.63-19.6 205.21-19.4 203.78-19.2 202.53-18.9L202.53-18.9 202.53-7.75Q202.53-5.9 202.86-4.8 203.18-3.7 203.78-3.25 204.38-2.8 205.28-2.8L205.28-2.8Q206.18-2.8 206.96-3.05 207.73-3.3 208.43-3.75L208.43-3.75Q209.13-2.9 209.18-1.6L209.18-1.6Q208.28-0.75 206.51-0.15 204.73 0.45 202.98 0.45ZM217.45 0.48L217.45 0.48Q215.41 0.48 214.27-0.66 213.13-1.8 213.13-3.6L213.13-3.6Q213.13-5.46 214.42-6.66 215.71-7.86 217.69-7.86L217.69-7.86Q219.67-7.86 220.75-6.6 221.83-5.34 221.83-3.9L221.83-3.9Q221.83-1.86 220.6-0.69 219.37 0.48 217.45 0.48ZM230.7 0.48L230.7 0.48Q228.66 0.48 227.52-0.66 226.38-1.8 226.38-3.6L226.38-3.6Q226.38-5.46 227.67-6.66 228.96-7.86 230.94-7.86L230.94-7.86Q232.92-7.86 234-6.6 235.08-5.34 235.08-3.9L235.08-3.9Q235.08-1.86 233.85-0.69 232.62 0.48 230.7 0.48ZM243.95 0.48L243.95 0.48Q241.91 0.48 240.77-0.66 239.63-1.8 239.63-3.6L239.63-3.6Q239.63-5.46 240.92-6.66 242.21-7.86 244.19-7.86L244.19-7.86Q246.17-7.86 247.25-6.6 248.33-5.34 248.33-3.9L248.33-3.9Q248.33-1.86 247.1-0.69 245.87 0.48 243.95 0.48Z" opacity="1" transform="matrix(1,0,0,1,0,0)" fill="#d2dbc8" class="wordmark-text-0" data-fill-palette-color="primary" id="text-0"></path></svg></g></svg></g><g transform="matrix(1,0,0,1,163.310208,69.60437742469271)"><svg viewBox="0 0 232.209792 23.292282104401227" height="23.292282104401227" width="232.209792"><g transform="matrix(1,0,0,1,0,0)"><svg width="232.209792" viewBox="0.9 -39.5 491.15000000000003 49" height="23.292282104401227" data-palette-color="#d2dbc8"><path d="M5.75-24L0.9-24 0.9-26.25 5.75-26.95 5.75-27.75Q5.75-33.35 8.38-36.43 11-39.5 15.5-39.5L15.5-39.5Q18.45-39.5 20.23-38.08 22-36.65 22-34.45L22-34.45Q22-33 21.25-32.23 20.5-31.45 19.2-31.45L19.2-31.45Q17.9-31.45 17.15-32.15 16.4-32.85 16.4-34.1L16.4-34.1Q16.4-35.3 17.2-36.45L17.2-36.45Q16.45-37.35 15.15-37.35L15.15-37.35Q14.1-37.35 13.3-36.9L13.3-36.9Q12.2-36.2 11.75-35.05 11.3-33.9 11.2-32.48 11.1-31.05 11.1-29.5L11.1-29.5 11.1-27 17.5-27 17.5-24 11.1-24 11.1-3.25 16.5-2.3 16.5 0 1.9 0 1.9-2.3 5.75-3.25 5.75-24ZM24.15-3.25L24.15-23.75 20.3-24.7 20.3-27 29.5-27 29.5-3.25 33.35-2.3 33.35 0 20.3 0 20.3-2.3 24.15-3.25ZM23.5-34.9L23.5-34.9Q23.5-36.4 24.4-37.3 25.3-38.2 26.8-38.2L26.8-38.2Q28.35-38.2 29.25-37.3 30.15-36.4 30.15-34.9L30.15-34.9Q30.15-33.45 29.27-32.55 28.4-31.65 26.8-31.65L26.8-31.65Q25.25-31.65 24.37-32.52 23.5-33.4 23.5-34.9ZM46.2-24.7L44-23.75 49.65-16.4 55.05-23.75 52.05-24.7 52.05-27 61.95-27 61.95-24.7 59.1-23.75 51.2-14.35 59.85-3.2 62.6-2.3 62.6 0 51.15 0 51.15-2.3 54-3.25 48-10.95 42.25-3.25 45.25-2.3 45.25 0 35.35 0 35.35-2.3 38.15-3.25 46.45-13 38.15-23.75 35.35-24.7 35.35-27 46.2-27 46.2-24.7ZM68.69-3.25L68.69-23.75 64.84-24.7 64.84-27 74.04-27 74.04-3.25 77.89-2.3 77.89 0 64.84 0 64.84-2.3 68.69-3.25ZM68.04-34.9L68.04-34.9Q68.04-36.4 68.94-37.3 69.84-38.2 71.34-38.2L71.34-38.2Q72.89-38.2 73.79-37.3 74.69-36.4 74.69-34.9L74.69-34.9Q74.69-33.45 73.82-32.55 72.94-31.65 71.34-31.65L71.34-31.65Q69.79-31.65 68.92-32.52 68.04-33.4 68.04-34.9ZM80.74-2.3L84.59-3.25 84.59-23.75 80.74-24.7 80.74-27 88.44-27 89.54-22 89.74-22Q91.24-24.55 93.79-26.03 96.34-27.5 99.24-27.5L99.24-27.5Q103.39-27.5 105.39-24.8L105.39-24.8Q106.39-23.4 106.82-20.88 107.24-18.35 107.24-14.05L107.24-14.05 107.24-3.25 111.09-2.3 111.09 0 98.54 0 98.54-2.3 101.89-3.25 101.89-13.9Q101.89-17.05 101.72-18.68 101.54-20.3 101.09-21.25L101.09-21.25Q100.54-22.5 99.47-23.08 98.39-23.65 96.94-23.65L96.94-23.65Q94.19-23.65 92.19-21.9L92.19-21.9Q90.14-20 89.94-16.1L89.94-16.1 89.94-3.25 93.29-2.3 93.29 0 80.74 0 80.74-2.3ZM137.79 0.45L137.79 0.45Q137.79 4.5 134.54 6.85 131.29 9.2 125.04 9.2L125.04 9.2Q121.44 9.2 118.84 8.5 116.24 7.8 114.84 6.4 113.44 5 113.44 2.95L113.44 2.95Q113.44 0.6 114.86-0.73 116.29-2.05 118.84-2.3L118.84-2.3 118.84-2.5Q115.39-3.5 115.39-6.35L115.39-6.35Q115.39-7.4 115.89-8.38 116.39-9.35 117.46-10.18 118.54-11 120.19-11.45L120.19-11.45Q117.69-12.25 116.29-14.2 114.89-16.15 114.89-18.9L114.89-18.9Q114.89-22.9 117.64-25.2 120.39-27.5 125.19-27.5L125.19-27.5Q127.84-27.5 129.71-26.93 131.59-26.35 132.94-25.2L132.94-25.2 134.64-25.8 139.24-28 140.09-28 140.09-23.35 139.24-23.35 135.74-23.75 134.19-23.75Q135.49-21.9 135.49-19.2L135.49-19.2Q135.49-15.2 132.81-12.9 130.14-10.6 125.34-10.6L125.34-10.6Q124.84-10.6 124.34-10.63 123.84-10.65 123.34-10.7L123.34-10.7Q121.39-10.4 120.34-9.7 119.29-9 119.29-7.85L119.29-7.85Q119.29-6.75 120.21-6.38 121.14-6 123.69-6L123.69-6 129.49-6Q133.59-6 135.69-4.42 137.79-2.85 137.79 0.45ZM126.79-1.9L126.79-1.9 124.04-1.9Q120.69-1.9 119.19-0.78 117.69 0.35 117.69 2.15L117.69 2.15Q117.69 6.45 125.29 6.45L125.29 6.45Q129.39 6.45 131.54 5.2 133.69 3.95 133.69 1.6L133.69 1.6Q133.69-0.35 132.16-1.13 130.64-1.9 126.79-1.9ZM119.79-19.1L119.79-19.1Q119.79-16.15 121.11-14.63 122.44-13.1 125.09-13.1L125.09-13.1Q127.94-13.1 129.26-14.63 130.59-16.15 130.59-19.1L130.59-19.1Q130.59-22 129.26-23.48 127.94-24.95 125.09-24.95L125.09-24.95Q122.44-24.95 121.11-23.48 119.79-22 119.79-19.1ZM180.33-24.7L177.28-23.75 169.08-1.2Q167.58 2.65 166.36 5.03 165.13 7.4 163.66 8.45 162.18 9.5 159.88 9.5L159.88 9.5Q157.53 9.5 155.86 8.25 154.18 7 154.18 5.1L154.18 5.1Q154.18 3.6 155.06 2.6 155.93 1.6 157.33 1.6L157.33 1.6Q158.58 1.6 159.28 2.23 159.98 2.85 159.98 4.05L159.98 4.05Q159.98 4.65 159.63 5.38 159.28 6.1 158.58 6.45L158.58 6.45Q158.68 6.95 159.18 7.13 159.68 7.3 160.03 7.3L160.03 7.3Q160.73 7.3 161.33 6.98 161.93 6.65 162.61 5.58 163.28 4.5 164.08 2.2L164.08 2.2 164.68 0.35 154.43-23.75 151.43-24.7 151.43-27 163.13-27 163.53-24.7 159.98-23.75 166.98-4.9 167.18-4.9 173.23-23.75 170.33-24.7 170.33-27 180.33-27 180.33-24.7ZM207.13-13.65L207.13-13.65Q207.13-10.45 206.18-7.55 205.23-4.65 203.48-2.75L203.48-2.75Q201.93-1.05 199.68-0.28 197.43 0.5 194.53 0.5L194.53 0.5Q191.68 0.5 189.46-0.28 187.23-1.05 185.68-2.7L185.68-2.7Q183.98-4.55 183.06-7.3 182.13-10.05 182.13-13.25L182.13-13.25Q182.13-16.5 183.08-19.43 184.03-22.35 185.78-24.25L185.78-24.25Q187.43-25.95 189.61-26.73 191.78-27.5 194.68-27.5L194.68-27.5Q197.53-27.5 199.78-26.73 202.03-25.95 203.58-24.3L203.58-24.3Q205.33-22.45 206.23-19.65 207.13-16.85 207.13-13.65ZM188.53-10.75L188.53-10.75Q188.73-8.4 189.43-6.75 190.13-5.1 191.23-4.1L191.23-4.1Q192.33-3.3 193.51-3 194.68-2.7 196.13-3L196.13-3Q198.98-3.85 200.13-7.45L200.13-7.45Q200.73-9.4 200.88-11.65 201.03-13.9 200.73-16.3L200.73-16.3Q200.53-18.6 199.83-20.28 199.13-21.95 198.03-22.9L198.03-22.9Q196.98-23.75 195.78-24.03 194.58-24.3 193.08-24L193.08-24Q190.23-23.15 189.18-19.55L189.18-19.55Q187.98-15.65 188.53-10.75ZM210.63-27L219.33-27 219.33-13.1Q219.33-9.9 219.5-8.28 219.68-6.65 220.08-5.75L220.08-5.75Q220.58-4.55 221.63-3.93 222.68-3.3 223.93-3.3L223.93-3.3Q225.28-3.3 226.48-3.8 227.68-4.3 228.63-5.15L228.63-5.15Q230.68-7 230.88-10.9L230.88-10.9 230.88-23.75 226.53-24.7 226.53-27 236.23-27 236.23-3.25 240.08-2.3 240.08 0 231.83 0.5 231.28-5 231.08-5Q229.63-2.45 227.13-0.98 224.63 0.5 221.78 0.5L221.78 0.5Q219.88 0.5 218.3-0.23 216.73-0.95 215.83-2.2L215.83-2.2Q214.88-3.6 214.43-6.15 213.98-8.7 213.98-12.95L213.98-12.95 213.98-23.75 210.63-24.7 210.63-27ZM257.98-23.85L257.98-23.85Q257.83-23.95 257.65-24 257.48-24.05 257.28-24.05L257.28-24.05Q256.73-24.05 256.03-23.45 255.33-22.85 254.7-21.95 254.08-21.05 253.63-20L253.63-20Q252.93-18.3 252.53-16.35 252.13-14.4 252.13-12.1L252.13-12.1 252.13-3.25 257.53-2.3 257.53 0 242.93 0 242.93-2.3 246.78-3.25 246.78-24 242.93-24.95 242.93-27 250.63-27 251.73-20.4 251.93-20.4Q253.08-23.8 255.03-25.65 256.98-27.5 259.33-27.5L259.33-27.5Q261.28-27.5 262.58-26.28 263.88-25.05 263.88-23L263.88-23Q263.88-21.5 263.05-20.5 262.23-19.5 260.83-19.5L260.83-19.5Q259.28-19.5 258.5-20.38 257.73-21.25 257.73-22.5L257.73-22.5Q257.73-22.8 257.75-23.05 257.78-23.3 257.98-23.85ZM287.87-2.05L287.87-2.05Q290.57-2.05 292.35-3.13 294.12-4.2 294.12-6.15L294.12-6.15Q294.12-7.7 293.02-8.68 291.92-9.65 290.3-10.25 288.67-10.85 287.02-11.35L287.02-11.35Q284.97-12 283.07-12.9 281.17-13.8 279.97-15.4 278.77-17 278.77-19.55L278.77-19.55Q278.77-23.15 281.4-25.33 284.02-27.5 288.72-27.5L288.72-27.5Q292.92-27.5 295.4-25.75 297.87-24 297.87-21.05L297.87-21.05Q297.87-19.45 297.1-18.53 296.32-17.6 294.92-17.6L294.92-17.6Q293.62-17.6 292.82-18.32 292.02-19.05 292.02-20.1L292.02-20.1Q292.02-21.05 292.52-21.83 293.02-22.6 293.82-22.95L293.82-22.95Q293.07-23.95 291.9-24.45 290.72-24.95 288.92-24.95L288.92-24.95Q286.12-24.95 284.75-23.9 283.37-22.85 283.37-20.9L283.37-20.9Q283.37-19.45 284.05-18.57 284.72-17.7 286.02-17.13 287.32-16.55 289.17-15.95L289.17-15.95Q290.97-15.4 292.69-14.78 294.42-14.15 295.85-13.23 297.27-12.3 298.12-10.95 298.97-9.6 298.97-7.6L298.97-7.6Q298.97-5.05 297.5-3.23 296.02-1.4 293.47-0.45 290.92 0.5 287.67 0.5L287.67 0.5Q283.17 0.5 280.47-1.3 277.77-3.1 277.77-6.1L277.77-6.1Q277.77-7.85 278.62-8.85 279.47-9.85 280.92-9.85L280.92-9.85Q282.12-9.85 283.02-9.15 283.92-8.45 283.92-7.3L283.92-7.3Q283.92-6.35 283.37-5.5 282.82-4.65 282.12-4.25L282.12-4.25Q282.72-3.35 284.22-2.7 285.72-2.05 287.87-2.05ZM316.07-27.5L316.07-27.5Q319.07-27.5 321.27-26.53 323.47-25.55 324.72-23.8 325.97-22.05 325.97-19.7L325.97-19.7Q325.97-17.7 325.04-16.65 324.12-15.6 322.52-15.6L322.52-15.6Q320.92-15.6 320.12-16.53 319.32-17.45 319.32-18.8L319.32-18.8Q319.32-20.05 319.97-20.95 320.62-21.85 321.82-22.2L321.82-22.2Q321.12-23.45 319.72-24.08 318.32-24.7 316.37-24.7L316.37-24.7Q312.57-24.7 310.74-22.15 308.92-19.6 308.92-13.85L308.92-13.85Q308.92-11.3 309.24-9.6 309.57-7.9 310.22-6.7L310.22-6.7Q311.17-5 312.67-4.05 314.17-3.1 316.32-3.1L316.32-3.1Q318.57-3.1 320.72-4.1 322.87-5.1 324.37-7L324.37-7 326.27-5.5Q324.17-2.4 321.39-0.95 318.62 0.5 315.12 0.5L315.12 0.5Q311.57 0.5 308.99-0.93 306.42-2.35 304.97-5.1L304.97-5.1Q303.17-8.45 303.17-13.2L303.17-13.2Q303.17-17.55 304.74-20.75 306.32-23.95 309.24-25.73 312.17-27.5 316.07-27.5ZM346.92-2.3L350.27-3.25 350.27-13.9Q350.27-17.15 350.09-18.75 349.92-20.35 349.47-21.25L349.47-21.25Q348.27-23.7 345.07-23.7L345.07-23.7Q343.67-23.7 342.37-23.13 341.07-22.55 340.17-21.55L340.17-21.55Q339.27-20.7 338.82-19.43 338.37-18.15 338.32-16.3L338.32-16.3 338.32-3.25 341.67-2.3 341.67 0 329.12 0 329.12-2.3 332.97-3.25 332.97-35.75 329.12-36.7 329.12-39 338.32-39 338.32-22.3Q339.77-24.7 342.12-26.1 344.47-27.5 347.22-27.5L347.22-27.5Q349.27-27.5 350.82-26.85 352.37-26.2 353.37-24.95L353.37-24.95Q354.57-23.5 355.09-20.93 355.62-18.35 355.62-14.05L355.62-14.05 355.62-3.25 359.47-2.3 359.47 0 346.92 0 346.92-2.3ZM385.61-13.05L385.61-13.05 368.16-13.05Q368.16-9.5 369.16-7.15L369.16-7.15Q370.11-5.05 371.79-4.08 373.46-3.1 375.56-3.1L375.56-3.1Q377.86-3.1 379.89-4.08 381.91-5.05 383.46-6.85L383.46-6.85 385.41-5.35Q383.66-2.95 381.01-1.23 378.36 0.5 374.26 0.5L374.26 0.5Q370.76 0.5 368.11-0.98 365.46-2.45 364.06-5.3L364.06-5.3Q363.31-6.85 362.96-8.75 362.61-10.65 362.61-12.8L362.61-12.8Q362.61-19.8 365.84-23.65 369.06-27.5 374.71-27.5L374.71-27.5Q379.96-27.5 382.86-24.33 385.76-21.15 385.76-15.55L385.76-15.55Q385.76-15.05 385.74-14.58 385.71-14.1 385.61-13.05ZM374.51-24.55L374.51-24.55Q368.76-24.55 368.21-15.75L368.21-15.75 380.21-15.75 380.21-17.3Q380.21-20.8 378.71-22.68 377.21-24.55 374.51-24.55ZM389.96-13.3L389.96-13.3Q389.96-16.6 390.83-19.53 391.71-22.45 393.36-24.25L393.36-24.25Q394.81-25.85 396.81-26.68 398.81-27.5 401.41-27.5L401.41-27.5Q403.66-27.5 405.46-26.65 407.26-25.8 408.71-23.6L408.71-23.6 408.71-35.75 404.86-36.7 404.86-39 414.06-39 414.06-3.25 417.91-2.3 417.91 0 409.66 0.5 409.26-3.6Q407.71-1.3 405.76-0.4 403.81 0.5 401.36 0.5L401.36 0.5Q398.76 0.5 396.76-0.28 394.76-1.05 393.41-2.65L393.41-2.65Q391.86-4.55 390.91-7.3 389.96-10.05 389.96-13.3ZM408.71-13.3L408.71-13.3Q408.71-16.3 408.26-18.53 407.81-20.75 407.01-22.05L407.01-22.05Q406.21-23.3 405.06-23.98 403.91-24.65 402.11-24.65L402.11-24.65Q400.61-24.65 399.33-24.08 398.06-23.5 397.31-22.3L397.31-22.3Q396.46-21.05 396.08-18.8 395.71-16.55 395.71-13.75L395.71-13.75Q395.71-10.75 396.16-8.55 396.61-6.35 397.36-5L397.36-5Q398.16-3.75 399.36-3.05 400.56-2.35 402.26-2.35L402.26-2.35Q403.81-2.35 405.06-2.9 406.31-3.45 407.01-4.65L407.01-4.65Q407.81-6 408.26-8.2 408.71-10.4 408.71-13.3ZM420.41-27L429.11-27 429.11-13.1Q429.11-9.9 429.28-8.28 429.46-6.65 429.86-5.75L429.86-5.75Q430.36-4.55 431.41-3.93 432.46-3.3 433.71-3.3L433.71-3.3Q435.06-3.3 436.26-3.8 437.46-4.3 438.41-5.15L438.41-5.15Q440.46-7 440.66-10.9L440.66-10.9 440.66-23.75 436.31-24.7 436.31-27 446.01-27 446.01-3.25 449.86-2.3 449.86 0 441.61 0.5 441.06-5 440.86-5Q439.41-2.45 436.91-0.98 434.41 0.5 431.56 0.5L431.56 0.5Q429.66 0.5 428.08-0.23 426.51-0.95 425.61-2.2L425.61-2.2Q424.66-3.6 424.21-6.15 423.76-8.7 423.76-12.95L423.76-12.95 423.76-23.75 420.41-24.7 420.41-27ZM452.31-2.3L456.15-3.25 456.15-35.75 452.31-36.7 452.31-39 461.5-39 461.5-3.25 465.36-2.3 465.36 0 452.31 0 452.31-2.3ZM491.9-13.05L491.9-13.05 474.45-13.05Q474.45-9.5 475.45-7.15L475.45-7.15Q476.4-5.05 478.08-4.08 479.75-3.1 481.85-3.1L481.85-3.1Q484.15-3.1 486.18-4.08 488.2-5.05 489.75-6.85L489.75-6.85 491.7-5.35Q489.95-2.95 487.3-1.23 484.65 0.5 480.55 0.5L480.55 0.5Q477.05 0.5 474.4-0.98 471.75-2.45 470.35-5.3L470.35-5.3Q469.6-6.85 469.25-8.75 468.9-10.65 468.9-12.8L468.9-12.8Q468.9-19.8 472.13-23.65 475.35-27.5 481-27.5L481-27.5Q486.25-27.5 489.15-24.33 492.05-21.15 492.05-15.55L492.05-15.55Q492.05-15.05 492.03-14.58 492-14.1 491.9-13.05ZM480.8-24.55L480.8-24.55Q475.05-24.55 474.5-15.75L474.5-15.75 486.5-15.75 486.5-17.3Q486.5-20.8 485-22.68 483.5-24.55 480.8-24.55Z" opacity="1" transform="matrix(1,0,0,1,0,0)" fill="#d2dbc8" class="slogan-text-1" data-fill-palette-color="secondary" id="text-1"></path></svg></g></svg></g></svg></g></svg></g><g transform="matrix(1,0,0,1,408.8136186811424,0)"><svg viewBox="0 0 128.38318346920784 128.38318346920784" height="128.38318346920784" width="128.38318346920784"><g data-palette-color="#e7f6f2"><rect width="35.09140348158348" height="128.38318346920784" fill="#e7f6f2" stroke="transparent" data-fill-palette-color="accent" x="0" fill-opacity="1"></rect><rect width="35.09140348158348" height="128.38318346920784" fill="#e7f6f2" stroke="transparent" data-fill-palette-color="accent" x="42.79439448973595" fill-opacity="0.75"></rect><rect width="35.09140348158348" height="128.38318346920784" fill="#e7f6f2" stroke="transparent" data-fill-palette-color="accent" x="85.5887889794719" fill-opacity="0.5"></rect></g></svg></g></svg></g><defs></defs></svg><rect width="395.52" height="94.52423492187755" fill="none" stroke="none" visibility="hidden"></rect></g></svg></g></svg>